<svg xmlns="http://www.w3.org/2000/svg" xmlns:cc="http://web.resource.org/cc/" xmlns:svg="http://www.w3.org/2000/svg" xmlns:xlink="http://www.w3.org/1999/xlink" id="svg606" width="128" height="128" version="1.0" viewBox="0 0 347.8 347.795" xml:space="preserve"><metadata id="metadata4652"/><defs id="defs607"><linearGradient id="linearGradient6071"><stop style="stop-color:white;stop-opacity:1" id="stop6073" offset="0"/><stop style="stop-color:white;stop-opacity:0" id="stop6075" offset="1"/></linearGradient><linearGradient id="linearGradient5902"><stop style="stop-color:white;stop-opacity:1" id="stop5904" offset="0"/><stop style="stop-color:white;stop-opacity:0" id="stop5906" offset="1"/></linearGradient><linearGradient id="linearGradient5846"><stop style="stop-color:white;stop-opacity:1" id="stop5848" offset="0"/><stop style="stop-color:white;stop-opacity:0" id="stop5850" offset="1"/></linearGradient><linearGradient id="linearGradient5822"><stop style="stop-color:#d3d7cf;stop-opacity:1" id="stop5824" offset="0"/><stop style="stop-color:white;stop-opacity:1" id="stop5826" offset="1"/></linearGradient><linearGradient id="aigrd8" x1="135.969" x2="41.133" y1="291.778" y2="74.766" gradientUnits="userSpaceOnUse"><stop id="stop676" offset="0" style="stop-color:#4a4a8c"/><stop id="stop677" offset="1" style="stop-color:#c1a9d2;stop-opacity:1"/></linearGradient><linearGradient id="linearGradient5748" x1="282.873" x2="119.178" y1="324.609" y2="69.967" gradientUnits="userSpaceOnUse" xlink:href="#aigrd8"/><linearGradient id="linearGradient5750" x1="282.873" x2="119.178" y1="324.609" y2="69.967" gradientUnits="userSpaceOnUse" xlink:href="#aigrd8"/><linearGradient id="linearGradient5752" x1="282.873" x2="119.178" y1="324.609" y2="69.967" gradientUnits="userSpaceOnUse" xlink:href="#aigrd8"/><linearGradient id="linearGradient5754" x1="282.873" x2="119.178" y1="324.609" y2="69.967" gradientUnits="userSpaceOnUse" xlink:href="#aigrd8"/><linearGradient id="linearGradient5756" x1="282.873" x2="119.178" y1="324.609" y2="69.967" gradientUnits="userSpaceOnUse" xlink:href="#aigrd8"/><linearGradient id="linearGradient5758" x1="282.873" x2="119.178" y1="324.609" y2="69.967" gradientUnits="userSpaceOnUse" xlink:href="#aigrd8"/><linearGradient id="linearGradient5760" x1="282.873" x2="119.178" y1="324.609" y2="69.967" gradientUnits="userSpaceOnUse" xlink:href="#aigrd8"/><linearGradient id="linearGradient5828" x1="287.368" x2="148.21" y1="367.028" y2="38.365" gradientUnits="userSpaceOnUse" xlink:href="#linearGradient5822"/><linearGradient id="linearGradient5830" x1="287.368" x2="148.21" y1="367.028" y2="38.365" gradientUnits="userSpaceOnUse" xlink:href="#linearGradient5822"/><linearGradient id="linearGradient5832" x1="287.368" x2="148.21" y1="367.028" y2="38.365" gradientUnits="userSpaceOnUse" xlink:href="#linearGradient5822"/><linearGradient id="linearGradient5834" x1="287.368" x2="148.21" y1="367.028" y2="38.365" gradientUnits="userSpaceOnUse" xlink:href="#linearGradient5822"/><linearGradient id="linearGradient5836" x1="287.368" x2="148.21" y1="367.028" y2="38.365" gradientUnits="userSpaceOnUse" xlink:href="#linearGradient5822"/><linearGradient id="linearGradient5838" x1="287.368" x2="148.21" y1="367.028" y2="38.365" gradientUnits="userSpaceOnUse" xlink:href="#linearGradient5822"/><linearGradient id="linearGradient5840" x1="287.368" x2="148.21" y1="367.028" y2="38.365" gradientUnits="userSpaceOnUse" xlink:href="#linearGradient5822"/><linearGradient id="linearGradient5842" x1="287.368" x2="148.21" y1="367.028" y2="38.365" gradientUnits="userSpaceOnUse" xlink:href="#linearGradient5822"/><linearGradient id="linearGradient5852" x1="245.705" x2="281.792" y1="165.364" y2="339.364" gradientTransform="matrix(0.964618,0,0,0.96462,9.176163,7.534743)" gradientUnits="userSpaceOnUse" xlink:href="#linearGradient5846"/><linearGradient id="linearGradient5908" x1="263.254" x2="292.643" y1="107.923" y2="246.323" gradientTransform="matrix(0.962904,0,0,0.962906,9.765672,5.19032)" gradientUnits="userSpaceOnUse" xlink:href="#linearGradient5902"/><linearGradient id="linearGradient5971" x1="287.368" x2="148.21" y1="367.028" y2="38.365" gradientUnits="userSpaceOnUse" xlink:href="#linearGradient5822"/><linearGradient id="linearGradient5973" x1="282.873" x2="119.178" y1="324.609" y2="69.967" gradientUnits="userSpaceOnUse" xlink:href="#aigrd8"/><linearGradient id="linearGradient5975" x1="287.368" x2="148.21" y1="367.028" y2="38.365" gradientUnits="userSpaceOnUse" xlink:href="#linearGradient5822"/><linearGradient id="linearGradient5978" x1="287.368" x2="148.21" y1="367.028" y2="38.365" gradientTransform="matrix(0.8,0,0,0.8,-3.613299e-6,0)" gradientUnits="userSpaceOnUse" xlink:href="#linearGradient5822"/><linearGradient id="linearGradient5981" x1="282.873" x2="119.178" y1="324.609" y2="69.967" gradientUnits="userSpaceOnUse" xlink:href="#aigrd8"/><linearGradient id="linearGradient5984" x1="287.368" x2="148.21" y1="367.028" y2="38.365" gradientUnits="userSpaceOnUse" xlink:href="#linearGradient5822"/><clipPath id="clipPath6018" clipPathUnits="userSpaceOnUse"><path id="path6012" d="M 119.31669,126.32972 L 5.6199935,166.02552 L 45.618819,280.93028 L 56.123561,277.21826 L 102.78886,178.04537 L 144.79172,197.76298 L 119.31669,126.32972 z" clip-path="none" mask="none" style="fill:#000;fill-opacity:1;fill-rule:nonzero;stroke:none;stroke-width:1.41945601;stroke-miterlimit:4;stroke-opacity:1"/></clipPath><linearGradient id="linearGradient6029" x1="287.368" x2="148.21" y1="367.028" y2="38.365" gradientUnits="userSpaceOnUse" xlink:href="#linearGradient5822"/><linearGradient id="linearGradient6031" x1="282.873" x2="119.178" y1="324.609" y2="69.967" gradientUnits="userSpaceOnUse" xlink:href="#aigrd8"/><linearGradient id="linearGradient6033" x1="287.368" x2="148.21" y1="367.028" y2="38.365" gradientUnits="userSpaceOnUse" xlink:href="#linearGradient5822"/><linearGradient id="linearGradient6035" x1="282.873" x2="119.178" y1="324.609" y2="69.967" gradientUnits="userSpaceOnUse" xlink:href="#aigrd8"/><linearGradient id="linearGradient6077" x1="185.686" x2="178.996" y1="249.846" y2="376.646" gradientTransform="matrix(0.963034,0,0,0.963033,7.575782,9.679785)" gradientUnits="userSpaceOnUse" xlink:href="#linearGradient6071"/></defs><path style="opacity:.3;fill-rule:nonzero;stroke:none;stroke-miterlimit:4" id="path613" d="M 118.9014,127.7905 L 133.5537,155.9243 L 130.8359,161.6059 L 118.9013,127.7905 L 118.9014,127.7905 z" clip-path="none" mask="none"/><path style="opacity:.3;fill-rule:nonzero;stroke:none;stroke-miterlimit:4" id="path614" d="M 165.8633,102.312 L 150.3906,134.6592 L 157.1982,132.2564 L 165.8632,102.3121 L 165.8633,102.312 z" clip-path="none" mask="none"/><path style="opacity:.3;fill-rule:nonzero;stroke:none;stroke-miterlimit:4" id="path615" d="M 183.2539,129.4321 L 217.0732,117.4985 L 188.7089,132.0405 L 183.2538,129.4321 L 183.2539,129.4321 z" clip-path="none" mask="none"/><path style="opacity:.3;fill-rule:nonzero;stroke:none;stroke-miterlimit:4" id="path616" d="M 210.2061,148.981 L 212.4112,155.2261 L 243.5714,168.7085 L 275.6739,95.1997 L 242.5557,164.4536 L 210.2061,148.9809 L 210.2061,148.981 z" clip-path="none" mask="none"/><path style="opacity:.3;fill-rule:nonzero;stroke:none;stroke-miterlimit:4" id="path617" d="M 227.3691,215.6665 L 230.4013,218.6997 L 299.7577,190.1186 L 227.369,215.6665 L 227.3691,215.6665 z" clip-path="none" mask="none"/><path style="opacity:.3;fill-rule:nonzero;stroke:none;stroke-miterlimit:4" id="path618" d="M 180.4141,241.1479 L 244.5098,276.0859 L 249.6592,274.2695 L 180.4141,241.1479 L 180.4141,241.1479 z" clip-path="none" mask="none"/><path style="opacity:.3;fill-rule:nonzero;stroke:none;stroke-miterlimit:4" id="path619" d="M 154.7451,298.3506 L 150.0625,296.1065 L 129.5986,227.7398 L 154.7451,298.3506 z" clip-path="none" mask="none"/><path style="opacity:.14857142;fill-rule:nonzero;stroke:#000;stroke-width:6.4000001;stroke-miterlimit:4;stroke-dasharray:none;stroke-opacity:1" id="path620" d="M 339.0488,187.7497 L 329.1133,182.9977 L 339.5,179.3307 L 299.916,67.1486 L 289.5176,70.8171 L 294.2715,60.8772 L 186.9521,9.5412 L 182.2031,19.4753 L 178.54,9.0998 L 66.3555,48.6867 L 70.0205,59.0739 L 60.084,54.3215 L 8.751,161.6462 L 18.6875,166.3991 L 8.3008,170.0651 L 47.8965,282.2423 L 58.2822,278.5802 L 53.5302,288.5138 L 160.8515,339.8478 L 165.6035,329.9103 L 169.2695,340.2951 L 281.4531,300.7131 L 277.7871,290.3244 L 287.7158,295.0744 L 339.0488,187.7497 z M 144.4951,201.1042 L 134.4326,172.5935 L 147.4922,145.2903 L 176.0127,135.2288 L 203.2998,148.2801 L 213.3721,176.8094 L 200.3203,204.0965 L 171.7988,214.1639 L 144.4951,201.1043 L 144.4951,201.1042 z" clip-path="none" mask="none"/><path id="path622" d="M 160.0859,336.8779 L 52.7646,285.5439 L 103.7236,179.0014 L 211.0468,230.3334 L 160.0859,336.8778 L 160.0859,336.8779 z" clip-path="none" mask="none" style="fill:url(#linearGradient5828);fill-opacity:1;fill-rule:nonzero;stroke:#204a87;stroke-width:2.21790004;stroke-miterlimit:4;stroke-opacity:1"/><path id="path626" d="M 168.6631,305.0049 L 72.1856,258.8594 L 106.5469,187.0181 L 203.0254,233.1617 L 168.6631,305.005 L 168.6631,305.0049 z" clip-path="none" mask="none" style="fill:url(#linearGradient5750);fill-opacity:1;fill-rule:nonzero;stroke:#204a87;stroke-width:1.62650001;stroke-miterlimit:4"/><path id="path5910" d="M 202.4,141.1949 L 204.6,147.3949 L 245.2,169.7949 L 283.4,77.194898 L 202.4,141.1949 z" clip-path="none" mask="none" transform="matrix(-0.698374,0.715734,-0.715734,-0.698374,420.8286,170.443)" style="opacity:.42857145;fill:#000;fill-opacity:1;fill-rule:evenodd;stroke:none;stroke-width:1px;stroke-linecap:butt;stroke-linejoin:miter;stroke-opacity:1"/><path id="path628" d="M 280.6875,297.7432 L 168.5039,337.3272 L 129.1953,225.9595 L 241.3838,186.3648 L 280.6875,297.7432 z" clip-path="none" mask="none" style="fill:url(#linearGradient5842);fill-opacity:1;fill-rule:nonzero;stroke:#204a87;stroke-width:2.21790004;stroke-miterlimit:4"/><path id="path632" d="M 264.2119,269.1328 L 163.3672,304.7217 L 136.8613,229.6255 L 237.7177,194.0298 L 264.2118,269.1328 L 264.2119,269.1328 z" clip-path="none" mask="none" style="fill:url(#linearGradient5748);fill-opacity:1;fill-rule:nonzero;stroke:#204a87;stroke-width:1.62650001;stroke-miterlimit:4"/><path style="fill:none;fill-opacity:1;fill-rule:nonzero;stroke:url(#linearGradient6077);stroke-width:2.21790004;stroke-miterlimit:4;stroke-opacity:1" id="path6069" d="M 277.88739,296.41631 L 169.85077,334.53701 L 131.99525,227.28624 L 240.03659,189.15524 L 277.88739,296.41631 z" clip-path="none" mask="none"/><path style="opacity:.42857145;fill:#000;fill-opacity:1;fill-rule:evenodd;stroke:none;stroke-width:1px;stroke-linecap:butt;stroke-linejoin:miter;stroke-opacity:1" id="path5888" d="M 202.4,141.1949 L 204.6,147.3949 L 245.2,169.7949 L 283.4,77.194898 L 202.4,141.1949 z" clip-path="none" mask="none" transform="matrix(5.961992e-4,1,-1,5.961992e-4,348.2909,-0.708693)"/><path id="path634" d="M 338.2832,184.7808 L 286.9502,292.1045 L 180.4141,241.148 L 231.7452,133.8243 L 338.2833,184.7808 L 338.2832,184.7808 z" clip-path="none" mask="none" style="fill:url(#linearGradient5840);fill-opacity:1;fill-rule:nonzero;stroke:#204a87;stroke-width:2.4000001;stroke-miterlimit:4;stroke-dasharray:none"/><path id="path638" d="M 306.416,176.1958 L 260.2695,272.6777 L 188.4257,238.3139 L 234.5722,141.8329 L 306.416,176.1957 L 306.416,176.1958 z" clip-path="none" mask="none" style="fill:url(#linearGradient5760);fill-opacity:1;fill-rule:nonzero;stroke:#204a87;stroke-width:1.62650001;stroke-miterlimit:4"/><path style="fill:none;fill-opacity:1;fill-rule:nonzero;stroke:url(#linearGradient5852);stroke-width:2.2178998;stroke-miterlimit:4;stroke-opacity:1" id="path5844" d="M 335.49023,185.778 L 285.97349,289.30459 L 183.20685,240.15093 L 232.72175,136.62434 L 335.49032,185.778 L 335.49023,185.778 z" clip-path="none" mask="none"/><path id="path5868" d="M 202.4,141.1949 L 204.6,147.3949 L 245.2,169.7949 L 283.4,77.194898 L 202.4,141.1949 z" clip-path="none" mask="none" transform="matrix(0.699099,0.715025,-0.715025,0.699099,176.8465,-72.44669)" style="opacity:.42857145;fill:#000;fill-opacity:1;fill-rule:evenodd;stroke:none;stroke-width:1px;stroke-linecap:butt;stroke-linejoin:miter;stroke-opacity:1"/><path id="path640" d="M 299.1504,64.1797 L 338.7344,176.3609 L 227.3692,215.6666 L 187.7745,103.485 L 299.1505,64.1798 L 299.1504,64.1797 z" clip-path="none" mask="none" style="fill:url(#linearGradient5838);fill-opacity:1;fill-rule:nonzero;stroke:#204a87;stroke-width:2.4000001;stroke-miterlimit:4;stroke-dasharray:none"/><path id="path644" d="M 270.54,80.6548 L 306.1298,181.4888 L 231.0331,208.0054 L 195.4433,107.1431 L 270.54,80.6548 z" clip-path="none" mask="none" style="fill:url(#linearGradient5758);fill-opacity:1;fill-rule:nonzero;stroke:#204a87;stroke-width:1.62650001;stroke-miterlimit:4"/><path style="opacity:.42857145;fill:#000;fill-opacity:1;fill-rule:evenodd;stroke:none;stroke-width:1px;stroke-linecap:butt;stroke-linejoin:miter;stroke-opacity:1" id="path5854" d="M 202.4,141.1949 L 204.6,147.3949 L 245.2,169.7949 L 283.4,77.194898 L 202.4,141.1949 z" clip-path="none" mask="none"/><path style="fill:none;fill-opacity:1;fill-rule:nonzero;stroke:url(#linearGradient5908);stroke-width:2.21790004;stroke-miterlimit:4;stroke-opacity:1" id="path5892" d="M 297.81879,66.989338 L 335.93438,175.00929 L 228.70038,212.85698 L 190.57449,104.83665 L 297.81889,66.989434 L 297.81879,66.989338 z" clip-path="none" mask="none"/><path id="path646" d="M 186.1865,6.5723 L 293.5058,57.9082 L 242.5556,164.4536 L 135.2275,113.1177 L 186.1865,6.5723 L 186.1865,6.5723 z" clip-path="none" mask="none" style="fill:url(#linearGradient5836);fill-opacity:1;fill-rule:nonzero;stroke:#204a87;stroke-width:2.4000001;stroke-miterlimit:4;stroke-dasharray:none"/><path id="path650" d="M 177.6055,38.4517 L 274.0869,84.5894 L 239.7217,156.44 L 143.2432,110.2945 L 177.6055,38.4517 z" clip-path="none" mask="none" style="fill:url(#linearGradient5756);fill-opacity:1;fill-rule:nonzero;stroke:#204a87;stroke-width:1.62650001;stroke-miterlimit:4"/><path id="path652" d="M 65.5898,45.7178 L 177.7744,6.1299 L 217.0732,117.4986 L 104.8906,157.0855 L 65.5898,45.7178 z" clip-path="none" mask="none" style="fill:url(#linearGradient5834);fill-opacity:1;fill-rule:nonzero;stroke:#204a87;stroke-width:2.4000001;stroke-miterlimit:4;stroke-dasharray:none"/><path id="path656" d="M 82.0576,74.3247 L 182.8984,38.7368 L 209.4072,113.832 L 108.5547,149.4233 L 82.0576,74.3247 z" clip-path="none" mask="none" style="fill:url(#linearGradient5754);fill-opacity:1;fill-rule:nonzero;stroke:#204a87;stroke-width:1.62650001;stroke-miterlimit:4"/><g id="g6014"><path style="fill:url(#linearGradient5832);fill-opacity:1;fill-rule:nonzero;stroke:#204a87;stroke-width:2.4000001;stroke-miterlimit:4;stroke-dasharray:none" id="path663" d="M 7.9854,158.6772 L 59.3184,51.352 L 165.8633,102.312 L 132.12609,172.84653 L 98.9293,168.4362 L 85.753878,195.87317 L 7.9854,158.6772 z" clip-path="none" mask="none"/><path style="fill:url(#linearGradient5752);fill-opacity:1;fill-rule:nonzero;stroke:#204a87;stroke-width:1.62650001;stroke-miterlimit:4" id="path667" d="M 39.8564,167.2544 L 86,70.7798 L 157.8457,105.1353 L 127.28979,169.02048 L 98.8992,167.2167 L 62.143179,154.73184 L 39.8564,167.2544 L 39.8564,167.2544 z" clip-path="none" mask="none"/></g><g id="g6006" clip-path="url(#clipPath6018)" transform="translate(-0.4,0)"><path id="path6008" d="M 47.1309,279.2725 L 7.5352,167.0962 L 118.9014,127.7905 L 158.4942,239.9731 L 47.1309,279.2725 z" clip-path="none" mask="none" style="fill:url(#linearGradient6029);fill-opacity:1;fill-rule:nonzero;stroke:#204a87;stroke-width:2.21790004;stroke-miterlimit:4;stroke-opacity:1"/><path id="path6010" d="M 75.7285,262.8047 L 40.1416,161.9604 L 115.2344,135.457 L 150.8282,236.3071 L 75.7286,262.8047 L 75.7285,262.8047 z" clip-path="none" mask="none" style="color:#000;fill:url(#linearGradient6031);fill-opacity:1;fill-rule:nonzero;stroke:#204a87;stroke-width:1.62650001;stroke-linecap:butt;stroke-linejoin:miter;marker:none;marker-start:none;marker-mid:none;marker-end:none;stroke-miterlimit:4;stroke-dasharray:none;stroke-dashoffset:0;stroke-opacity:1;visibility:visible;display:inline;overflow:visible"/></g></svg>