<svg xmlns="http://www.w3.org/2000/svg" xmlns:cc="http://web.resource.org/cc/" xmlns:svg="http://www.w3.org/2000/svg" xmlns:xlink="http://www.w3.org/1999/xlink" id="svg3839" width="48" height="48"><defs id="defs3841"><linearGradient id="linearGradient3799"><stop style="stop-color:#555753;stop-opacity:1" id="stop3801" offset="0"/><stop style="stop-color:#555753;stop-opacity:0" id="stop3803" offset="1"/></linearGradient><linearGradient id="linearGradient5154"><stop style="stop-color:#fff;stop-opacity:1" id="stop5156" offset="0"/><stop style="stop-color:#fff;stop-opacity:0" id="stop5158" offset="1"/></linearGradient><linearGradient id="linearGradient5162"><stop id="stop5166" offset="0" style="stop-color:#9c9e99;stop-opacity:1"/><stop id="stop5164" offset="1" style="stop-color:#868883;stop-opacity:1"/></linearGradient><linearGradient id="linearGradient5186"><stop style="stop-color:black;stop-opacity:1" id="stop5188" offset="0"/><stop style="stop-color:black;stop-opacity:0" id="stop5190" offset="1"/></linearGradient><radialGradient id="radialGradient3884" cx="11.004" cy="9.3" r="7.965" fx="11.004" fy="9.3" gradientTransform="matrix(1.54056, 0, 0, 1.53926, -4.06683, -13.3314)" gradientUnits="userSpaceOnUse" xlink:href="#linearGradient5162"/><linearGradient id="linearGradient3886" x1="10.365" x2="10.365" y1="5.298" y2="24.067" gradientUnits="userSpaceOnUse" xlink:href="#linearGradient5154"/><radialGradient id="radialGradient3888" cx="16.502" cy="8.055" r="10.111" fx="16.502" fy="8.055" gradientTransform="matrix(1.15743, 0, 0, 0.582633, -2.59789, 8.12403)" gradientUnits="userSpaceOnUse" xlink:href="#linearGradient3799"/><radialGradient id="radialGradient2185" cx="10.563" cy="17.625" r="8.563" fx="10.563" fy="17.625" gradientTransform="matrix(0.95229, 0, 0, 0.333649, 0.503942, 11.7444)" gradientUnits="userSpaceOnUse" xlink:href="#linearGradient5186"/><radialGradient id="radialGradient2189" cx="10.563" cy="17.625" r="8.563" fx="10.563" fy="17.625" gradientTransform="matrix(0.964291, 0, 0, 0.337854, 0.377178, 11.6703)" gradientUnits="userSpaceOnUse" xlink:href="#linearGradient5186"/><radialGradient id="radialGradient2192" cx="10.563" cy="17.625" r="8.563" fx="10.563" fy="17.625" gradientTransform="matrix(1, 0, 0, 0.350365, 0, 11.4498)" gradientUnits="userSpaceOnUse" xlink:href="#linearGradient5186"/></defs><metadata id="metadata3844"/><g id="layer1"><path id="path3819" d="M 19.125 17.625 A 8.5625 3 0 1 1 2,17.625 A 8.5625 3 0 1 1 19.125 17.625 z" transform="matrix(2.58412, 0, 0, 1.31582, -2.29476, 11.6023)" style="overflow:visible;marker:none;opacity:.091954;color:#000;fill:url(#radialGradient2192) #000;fill-opacity:1;fill-rule:nonzero;stroke:none;stroke-width:1;stroke-linecap:round;stroke-linejoin:round;stroke-miterlimit:4;stroke-dasharray:none;stroke-dashoffset:0;stroke-opacity:1;visibility:visible;display:inline"/><path id="path2183" d="M 19.125 17.625 A 8.5625 3 0 1 1 2,17.625 A 8.5625 3 0 1 1 19.125 17.625 z" transform="matrix(1.05109, 0, 0, 1.40173, 2.89781, 11.4997)" style="overflow:visible;marker:none;opacity:.203065;color:#000;fill:url(#radialGradient2185) #000;fill-opacity:1;fill-rule:nonzero;stroke:none;stroke-width:1;stroke-linecap:round;stroke-linejoin:round;stroke-miterlimit:4;stroke-dasharray:none;stroke-dashoffset:0;stroke-opacity:1;visibility:visible;display:inline"/><path id="path2187" d="M 19.125 17.625 A 8.5625 3 0 1 1 2,17.625 A 8.5625 3 0 1 1 19.125 17.625 z" transform="matrix(1.05109, 0, 0, 1.40173, 23.8978, 11.4997)" style="overflow:visible;marker:none;opacity:.203065;color:#000;fill:url(#radialGradient2189) #000;fill-opacity:1;fill-rule:nonzero;stroke:none;stroke-width:1;stroke-linecap:round;stroke-linejoin:round;stroke-miterlimit:4;stroke-dasharray:none;stroke-dashoffset:0;stroke-opacity:1;visibility:visible;display:inline"/><g id="g3821" transform="matrix(1.23077, 0, 0, 1.23077, 3.22252, 7.37279)"><g id="g3823" transform="translate(4.52672, 9.4056)"><path id="path3825" d="M 4.3116263,-7.9047834 C 3.1284911,-7.9138208 2.0467982,-7.191319 1.5988112,-6.0962397 C 1.150825,-5.0011613 1.426782,-3.7540848 2.2770152,-2.9312886 L 8.7877699,3.5794713 L 2.2770152,10.090223 C 1.1408453,11.226392 1.1408453,13.068496 2.2770152,14.204665 C 3.413185,15.340834 5.2552803,15.340834 6.39145,14.204665 L 12.902207,7.6939047 L 19.412964,14.204665 C 20.143108,14.95565 21.204196,15.243372 22.2162,14.973295 C 23.228214,14.703219 24.037149,13.908401 24.296024,12.893469 C 24.554902,11.878538 24.241195,10.812032 23.482185,10.090223 L 16.971429,3.5794713 L 23.482185,-2.9312886 C 24.338874,-3.7597417 24.620171,-5.0419757 24.160388,-6.1414534 C 23.700606,-7.2409305 22.593771,-7.9328101 21.402362,-7.9047834 C 20.64653,-7.874935 19.932434,-7.5503435 19.412964,-7.000512 L 12.902207,-0.4897543 L 6.39145,-7.000512 C 5.8500755,-7.572344 5.0990546,-7.8988742 4.3116263,-7.9047834 z" style="overflow:visible;marker:none;opacity:1;color:#000;fill:url(#radialGradient3884) #000;fill-opacity:1;fill-rule:nonzero;stroke:#555753;stroke-width:.8125;stroke-linecap:round;stroke-linejoin:round;stroke-miterlimit:4;stroke-dasharray:none;stroke-dashoffset:0;stroke-opacity:1;visibility:visible;display:inline"/></g><path id="path3827" d="M 4.3125,-7.09375 C 3.4703978,-7.1001826 2.6631615,-6.5620336 2.34375,-5.78125 C 2.0245705,-5.0010326 2.2241798,-4.1308267 2.84375,-3.53125 C 2.8541657,-3.5314476 2.8645843,-3.5314476 2.875,-3.53125 L 9.375,3 C 9.5364678,3.1553211 9.6277145,3.3697042 9.6277145,3.59375 C 9.6277145,3.8177958 9.5364678,4.0321789 9.375,4.1875 L 2.875,10.6875 C 2.0554426,11.507057 2.0554426,12.805443 2.875,13.625 C 3.6945578,14.444557 4.9929424,14.444557 5.8125,13.625 L 12.3125,7.09375 C 12.467821,6.9322822 12.682204,6.8410355 12.90625,6.8410355 C 13.130296,6.8410355 13.344679,6.9322822 13.5,7.09375 L 20,13.625 C 20.000198,13.635416 20.000198,13.645834 20,13.65625 C 20.518211,14.189252 21.25952,14.385114 22,14.1875 C 22.734866,13.991386 23.284374,13.410356 23.46875,12.6875 C 23.653949,11.961426 23.450865,11.205422 22.90625,10.6875 C 22.895834,10.687698 22.885416,10.687698 22.875,10.6875 L 16.375,4.1875 C 16.213532,4.0321789 16.122285,3.8177958 16.122285,3.59375 C 16.122285,3.3697042 16.213532,3.1553211 16.375,3 L 22.875,-3.53125 C 22.885416,-3.5314476 22.895834,-3.5314476 22.90625,-3.53125 C 23.522472,-4.1271617 23.729827,-5.0699801 23.40625,-5.84375 C 23.080156,-6.6235373 22.304482,-7.1141449 21.4375,-7.09375 C 20.897652,-7.0724312 20.368639,-6.8276853 20,-6.4375 C 20.000198,-6.4270843 20.000198,-6.4166657 20,-6.40625 L 13.5,0.09375 C 13.344679,0.25521784 13.130296,0.34646454 12.90625,0.34646454 C 12.682204,0.34646454 12.467821,0.25521784 12.3125,0.09375 L 5.8125,-6.40625 C 5.8123024,-6.4166657 5.8123024,-6.4270843 5.8125,-6.4375 C 5.4291815,-6.8423838 4.8748348,-7.08953 4.3125,-7.09375 z" transform="translate(4.54779, 9.40683)" xlink:href="#path4262" style="overflow:visible;marker:none;opacity:.362069;color:#000;fill:none;fill-opacity:1;fill-rule:nonzero;stroke:url(#linearGradient3886) #000;stroke-width:.8125;stroke-linecap:round;stroke-linejoin:round;stroke-miterlimit:4;stroke-dasharray:none;stroke-dashoffset:0;stroke-opacity:1;visibility:visible;display:inline"/><path style="opacity:.3;fill:url(#radialGradient3888) #000;fill-opacity:1;fill-rule:evenodd;stroke:none;stroke-width:1px;stroke-linecap:butt;stroke-linejoin:miter;stroke-opacity:1" id="path3829" d="M 14,13 C 18.242641,11.762563 17.154067,13.132583 20.911612,13.132583 L 27.823223,20.044194 L 24,23 L 17.500893,16.443651 L 11,22.779029 L 7.6013979,19.448855 L 14,13 z"/></g></g></svg>