<svg xmlns="http://www.w3.org/2000/svg" xmlns:cc="http://web.resource.org/cc/" xmlns:svg="http://www.w3.org/2000/svg" xmlns:xlink="http://www.w3.org/1999/xlink" id="svg2" width="48" height="48" version="1.0"><defs id="defs4"><linearGradient id="linearGradient6404"><stop style="stop-color:#fcaf3e;stop-opacity:1" id="stop6406" offset="0"/><stop style="stop-color:#fcaf3e;stop-opacity:0" id="stop6408" offset="1"/></linearGradient><linearGradient id="linearGradient6394"><stop style="stop-color:#f57900;stop-opacity:1" id="stop6396" offset="0"/><stop style="stop-color:#fcaf3e;stop-opacity:1" id="stop6398" offset="1"/></linearGradient><linearGradient id="linearGradient3444"><stop id="stop3446" offset="0" style="stop-color:#fcaf3e;stop-opacity:1"/><stop id="stop3448" offset="1" style="stop-color:#f57900;stop-opacity:1"/></linearGradient><linearGradient id="linearGradient3383"><stop style="stop-color:#000;stop-opacity:1" id="stop3385" offset="0"/><stop style="stop-color:#000;stop-opacity:0" id="stop3387" offset="1"/></linearGradient><linearGradient id="linearGradient3360"><stop style="stop-color:#fff;stop-opacity:1" id="stop3362" offset="0"/><stop style="stop-color:#fff;stop-opacity:0" id="stop3364" offset="1"/></linearGradient><radialGradient id="radialGradient5377" cx="11.026" cy="15.747" r="10.982" fx="11.026" fy="15.747" gradientTransform="matrix(1, 0, 0, 0.488934, 0, 8.04752)" gradientUnits="userSpaceOnUse" xlink:href="#linearGradient3383"/><radialGradient id="radialGradient5383" cx="-9.624" cy="-13.159" r="29.191" fx="-9.624" fy="-13.159" gradientTransform="matrix(1.14466, -0.25916, 0.264299, 1.18332, 6.57237, 9.67629)" gradientUnits="userSpaceOnUse" xlink:href="#linearGradient3444"/><linearGradient id="linearGradient5385" x1="-10.618" x2="18.455" y1="-9.04" y2="35.779" gradientUnits="userSpaceOnUse" xlink:href="#linearGradient3360"/><linearGradient id="linearGradient6400" x1="27.688" x2="28.438" y1="21.75" y2="26.438" gradientUnits="userSpaceOnUse" xlink:href="#linearGradient6394"/><radialGradient id="radialGradient6410" cx="27.5" cy="19.096" r=".5" fx="27.5" fy="19.096" gradientTransform="matrix(15, 0, 0, 19.2246, -385, -346.982)" gradientUnits="userSpaceOnUse" xlink:href="#linearGradient6404"/></defs><metadata id="metadata7"/><g id="layer1"><path style="opacity:.2;fill:url(#radialGradient5377) #000;fill-opacity:1;stroke:none;stroke-width:1;stroke-linecap:round;stroke-linejoin:miter;stroke-miterlimit:4;stroke-dasharray:none;stroke-dashoffset:0;stroke-opacity:1" id="path3428" d="M 22.008698 15.746525 A 10.982252 5.3695922 0 1 1 0.044194221,15.746525 A 10.982252 5.3695922 0 1 1 22.008698 15.746525 z" transform="matrix(1.92194, 0, 0, 1.92887, 2.85961, 6.05183)"/><path style="fill:url(#radialGradient5383) #000;fill-opacity:1;stroke:#ce5c00;stroke-width:1.41832;stroke-linecap:round;stroke-linejoin:round;stroke-miterlimit:4;stroke-dasharray:none;stroke-dashoffset:0;stroke-opacity:1" id="path3430" d="M 13.46404,13.377538 L 12.552308,26.55842 L 2.4276384,18.069725 L -6.7432965,27.580817 L -9.0428153,14.570087 L -22.181771,15.961042 L -15.580169,4.5161432 L -26.539281,-2.8638809 L -14.125521,-7.3877544 L -17.7769,-20.085563 L -5.3595186,-15.57164 L 0.0053563245,-27.645786 L 6.6161288,-16.206182 L 18.486973,-22.007039 L 16.197883,-8.9944711 L 29.020197,-5.8077543 L 18.902334,2.6890523 L 26.676414,13.372244 L 13.46404,13.377538 z" transform="matrix(0.690214, 0.155215, -0.154159, 0.685554, 23.451, 22.675)"/><path style="opacity:.465517;fill:none;fill-opacity:1;stroke:url(#linearGradient5385) #000;stroke-width:1.43241;stroke-linecap:round;stroke-linejoin:miter;stroke-miterlimit:4;stroke-dasharray:none;stroke-dashoffset:0;stroke-opacity:1" id="path3432" d="M 0.15625,-24.84375 L -4.21875,-15.03125 C -4.4902212,-14.422336 -5.1832918,-14.123364 -5.8125,-14.34375 L -15.875,-18.03125 L -12.90625,-7.71875 C -12.716198,-7.0735936 -13.057344,-6.3913021 -13.6875,-6.15625 L -23.71875,-2.53125 L -14.875,3.46875 C -14.321167,3.8398852 -14.144502,4.5737247 -14.46875,5.15625 L -19.8125,14.40625 L -9.15625,13.28125 C -8.4910776,13.223021 -7.8927034,13.685401 -7.78125,14.34375 L -5.9375,24.90625 L 1.5,17.1875 C 1.9674099,16.69981 2.7331623,16.658787 3.25,17.09375 L 11.4375,23.96875 L 12.1875,13.28125 C 12.236706,12.610485 12.796185,12.091944 13.46875,12.09375 L 24.1875,12.09375 L 17.875,3.4375 C 17.490777,2.8946424 17.585797,2.148058 18.09375,1.71875 L 26.28125,-5.15625 L 15.875,-7.75 C 15.22645,-7.9190262 14.817751,-8.5593202 14.9375,-9.21875 L 16.8125,-19.75 L 7.1875,-15.0625 C 6.5892476,-14.774994 5.870476,-14.991981 5.53125,-15.5625 L 0.15625,-24.84375 z" transform="matrix(0.683423, 0.15369, -0.152642, 0.678817, 23.5482, 22.6804)"/><path style="fill:url(#linearGradient6400) #000;fill-opacity:1;stroke:none;stroke-width:1;stroke-linecap:round;stroke-linejoin:miter;stroke-miterlimit:4;stroke-dashoffset:0;stroke-opacity:1" id="path6392" d="M 22.90625,15 C 22.391886,15.050545 21.99983,15.483158 22,16 L 22,22 L 19,22 C 18.622709,22.00037 18.277444,22.212129 18.106083,22.54826 C 17.934722,22.884391 17.966168,23.2882 18.1875,23.59375 L 24.1875,32.09375 C 24.37651,32.353765 24.678547,32.507613 25,32.507613 C 25.321453,32.507613 25.62349,32.353765 25.8125,32.09375 L 31.8125,23.59375 C 32.033832,23.2882 32.065278,22.884391 31.893917,22.54826 C 31.722556,22.212129 31.377291,22.00037 31,22 L 28,22 L 28,16 C 27.997544,15.448736 27.551264,15.002456 27,15 L 23,15 C 22.968767,14.998541 22.937483,14.998541 22.90625,15 L 22.90625,15 z"/><path style="fill:#fff;fill-opacity:1;stroke:none;stroke-width:1;stroke-linecap:round;stroke-linejoin:miter;stroke-miterlimit:4;stroke-dashoffset:0;stroke-opacity:1" id="path3436" d="M 25,31.5 L 19,23 L 23,23 L 23,16 L 27,16 L 27,23 L 31,23 L 25,31.5 z"/><path style="fill:none;fill-rule:evenodd;stroke:url(#radialGradient6410) #000;stroke-width:1px;stroke-linecap:round;stroke-linejoin:miter;stroke-opacity:1" id="path6402" d="M 27.5,21.929391 L 27.5,16.07061"/></g></svg>