<svg xmlns="http://www.w3.org/2000/svg" xmlns:cc="http://web.resource.org/cc/" xmlns:svg="http://www.w3.org/2000/svg" xmlns:xlink="http://www.w3.org/1999/xlink" id="svg2108" width="48" height="48"><defs id="defs3"><linearGradient id="linearGradient4562"><stop style="stop-color:#fff;stop-opacity:1" id="stop4564" offset="0"/><stop style="stop-color:#d6d6d2;stop-opacity:1" id="stop4566" offset="1"/></linearGradient><linearGradient id="linearGradient4356"><stop style="stop-color:#000;stop-opacity:1" id="stop4358" offset="0"/><stop style="stop-color:#000;stop-opacity:0" id="stop4360" offset="1"/></linearGradient><linearGradient id="linearGradient3824"><stop style="stop-color:#fff;stop-opacity:1" id="stop3826" offset="0"/><stop style="stop-color:#c9c9c9;stop-opacity:1" id="stop3828" offset="1"/></linearGradient><linearGradient id="linearGradient3816"><stop style="stop-color:#000;stop-opacity:1" id="stop3818" offset="0"/><stop style="stop-color:#000;stop-opacity:0" id="stop3820" offset="1"/></linearGradient><radialGradient id="radialGradient3822" cx="31.113" cy="19.009" r="8.662" fx="31.113" fy="19.009" gradientUnits="userSpaceOnUse" xlink:href="#linearGradient3816"/><linearGradient id="linearGradient4362" x1="20.662" x2="22.627" y1="35.818" y2="36.218" gradientTransform="matrix(1.3161, 0.243028, -0.243028, 1.3161, -9.26213, -16.074)" gradientUnits="userSpaceOnUse" xlink:href="#linearGradient4356"/><linearGradient id="linearGradient4366" x1="22.687" x2="21.408" y1="36.39" y2="35.74" gradientTransform="matrix(-1.30849, 0.281154, 0.281154, 1.30849, 57.412, -17.2385)" gradientUnits="userSpaceOnUse" xlink:href="#linearGradient4356"/><linearGradient id="linearGradient1366" x1="22.687" x2="21.408" y1="36.39" y2="35.74" gradientTransform="matrix(-1.30849, 0.281154, 0.281154, 1.30849, 39.0911, -26.2122)" gradientUnits="userSpaceOnUse" xlink:href="#linearGradient4356"/><linearGradient id="linearGradient1372" x1="30.936" x2="30.936" y1="29.553" y2="35.803" gradientTransform="matrix(1.33835, 0, 0, 1.33835, -33.4792, -20.7)" gradientUnits="userSpaceOnUse" xlink:href="#linearGradient3824"/><radialGradient id="radialGradient4568" cx="24.754" cy="26.814" r="17.986" fx="24.754" fy="26.814" gradientTransform="matrix(1.35452, 4.45188e-16, -3.34051e-08, 1.36639, -8.94746, -9.87136)" gradientUnits="userSpaceOnUse" xlink:href="#linearGradient4562"/><radialGradient id="radialGradient3816" cx="29.922" cy="17.728" r="17.986" fx="29.922" fy="17.728" gradientTransform="matrix(0.558489, 1.47748e-16, -1.37735e-08, 0.563387, 14.8713, 4.36412)" gradientUnits="userSpaceOnUse" xlink:href="#linearGradient4562"/><filter id="filter5655" width="1.152" height="1.567" x="-.076" y="-.283"><feGaussianBlur id="feGaussianBlur5657" stdDeviation="1.453"/></filter></defs><metadata id="metadata4"/><g id="layer1" style="display:inline"><path style="overflow:visible;marker:none;opacity:1;color:#000;fill:url(#linearGradient1372) #000;fill-opacity:1;fill-rule:evenodd;stroke:none;stroke-width:1px;stroke-linecap:round;stroke-linejoin:round;stroke-miterlimit:4;stroke-dasharray:none;stroke-dashoffset:0;stroke-opacity:1;visibility:visible;display:inline" id="path4173" d="M 13.365469,24.850231 L 19.043607,24.850231 L 15.731361,21.774572 L 15.021593,22.720929 L 14.311825,22.011162 L 13.365469,24.850231 z"/><path id="path4370" d="M 19.882923,32.490544 C 21.530768,31.712992 22.297815,29.810737 22.297815,29.810737 C 21.014177,24.39981 16.976336,20.652646 16.976336,20.652646 C 16.976336,20.652646 20.274824,29.141269 19.882923,32.490544 z" style="overflow:visible;marker:none;opacity:.227848;color:#000;fill:url(#linearGradient1366) #000;fill-opacity:1;fill-rule:evenodd;stroke:none;stroke-width:1px;stroke-linecap:round;stroke-linejoin:round;stroke-miterlimit:4;stroke-dasharray:none;stroke-dashoffset:0;stroke-opacity:1;visibility:visible;display:inline"/></g><g id="layer2" style="display:inline"><rect style="overflow:visible;marker:none;opacity:.348571;color:#000;fill:#000;fill-opacity:1;fill-rule:nonzero;stroke:none;stroke-width:.3;stroke-linecap:butt;stroke-linejoin:miter;stroke-miterlimit:10;stroke-dasharray:none;stroke-dashoffset:0;stroke-opacity:1;visibility:visible;display:block;filter:url(#filter5655)" id="rect4608" width="38.184" height="10.253" x="5.303" y="35.449" rx="5.127" ry="5.127" transform="matrix(0.935185, 0, 0, 0.935185, 1.58117, 2.27633)"/><path style="overflow:visible;marker:none;opacity:1;color:#000;fill:url(#radialGradient4568) #000;fill-opacity:1;fill-rule:evenodd;stroke:#888a85;stroke-width:1px;stroke-linecap:round;stroke-linejoin:round;stroke-miterlimit:4;stroke-dasharray:none;stroke-dashoffset:0;stroke-opacity:1;visibility:visible;display:inline" id="path4308" d="M 17.918908,43.517006 L 32.114254,43.517006 C 36.136269,43.517006 40.118235,42.042236 41.577816,37.838868 C 42.963864,33.847271 41.814406,26.246002 32.824021,20.094686 L 16.026195,20.094686 C 7.0358098,25.772823 5.9122958,33.538186 7.9821665,38.075456 C 10.090864,42.697836 13.660304,43.517006 17.918908,43.517006 z"/><path id="path4364" d="M 38.203826,41.464292 C 39.851671,40.68674 40.618718,38.784486 40.618718,38.784486 C 39.33508,33.373558 35.297238,29.626395 35.297238,29.626395 C 35.297238,29.626395 38.595727,38.115017 38.203826,41.464292 z" style="overflow:visible;marker:none;opacity:.291209;color:#000;fill:url(#linearGradient4366) #000;fill-opacity:1;fill-rule:evenodd;stroke:none;stroke-width:1px;stroke-linecap:round;stroke-linejoin:round;stroke-miterlimit:4;stroke-dasharray:none;stroke-dashoffset:0;stroke-opacity:1;visibility:visible;display:inline"/><path style="overflow:visible;marker:none;opacity:.549451;color:#000;fill:url(#linearGradient4362) #000;fill-opacity:1;fill-rule:evenodd;stroke:none;stroke-width:1px;stroke-linecap:round;stroke-linejoin:round;stroke-miterlimit:4;stroke-dasharray:none;stroke-dashoffset:0;stroke-opacity:1;visibility:visible;display:inline" id="path4354" d="M 11.642995,42.046125 C 9.9732599,41.316765 9.2259419,39.559099 9.2259419,39.559099 C 10.351871,34.11317 14.204505,30.128795 14.204505,30.128795 C 14.204505,30.128795 11.153975,38.709646 11.642995,42.046125 z"/><path id="path4314" d="M 17.593144,42.482789 L 32.120832,42.452196 C 35.775407,42.452196 39.393589,41.112158 40.719828,37.292799 C 41.97925,33.665864 40.58869,26.759027 32.419643,21.169679 L 16.464198,20.833163 C 8.295151,25.99256 6.714018,33.0485 8.6253819,37.507773 C 10.536748,41.967046 13.325894,42.452196 17.593144,42.482789 z" style="overflow:visible;marker:none;opacity:.642857;color:#000;fill:none;fill-opacity:1;fill-rule:evenodd;stroke:#fff;stroke-width:1px;stroke-linecap:round;stroke-linejoin:round;stroke-miterlimit:4;stroke-dasharray:none;stroke-dashoffset:0;stroke-opacity:1;visibility:visible;display:inline"/><path id="path4318" d="M 39.774755 19.008621 A 8.6620579 8.6620579 0 1 1 22.45064,19.008621 A 8.6620579 8.6620579 0 1 1 39.774755 19.008621 z" transform="matrix(1.33835, 0, 0, 1.33835, -17.027, -7.52236)" style="overflow:visible;marker:none;opacity:1;color:#000;fill:url(#radialGradient3822) #000;fill-opacity:1;fill-rule:evenodd;stroke:none;stroke-width:1px;stroke-linecap:round;stroke-linejoin:round;stroke-miterlimit:4;stroke-dasharray:none;stroke-dashoffset:0;stroke-opacity:1;visibility:visible;display:inline"/><path style="overflow:visible;marker:none;opacity:1;color:#000;fill:url(#radialGradient3816) #000;fill-opacity:1;fill-rule:evenodd;stroke:#888a85;stroke-width:.747189px;stroke-linecap:round;stroke-linejoin:round;stroke-miterlimit:4;stroke-dasharray:none;stroke-dashoffset:0;stroke-opacity:1;visibility:visible;display:inline" id="path4320" d="M 39.774755 19.008621 A 8.6620579 8.6620579 0 1 1 22.45064,19.008621 A 8.6620579 8.6620579 0 1 1 39.774755 19.008621 z" transform="matrix(1.33835, 0, 0, 1.33835, -16.8597, -12.2066)"/><path id="path4322" d="M 39.774755 19.008621 A 8.6620579 8.6620579 0 1 1 22.45064,19.008621 A 8.6620579 8.6620579 0 1 1 39.774755 19.008621 z" transform="matrix(1.21512, 0, 0, 1.21512, -13.0257, -9.8642)" style="overflow:visible;marker:none;opacity:.196203;color:#000;fill:none;fill-opacity:1;fill-rule:evenodd;stroke:#fff;stroke-width:.822962px;stroke-linecap:round;stroke-linejoin:round;stroke-miterlimit:4;stroke-dasharray:none;stroke-dashoffset:0;stroke-opacity:1;visibility:visible;display:inline"/></g></svg>