<svg xmlns="http://www.w3.org/2000/svg" xmlns:cc="http://web.resource.org/cc/" xmlns:svg="http://www.w3.org/2000/svg" xmlns:xlink="http://www.w3.org/1999/xlink" id="svg11300" width="48" height="48"><defs id="defs3"><linearGradient id="linearGradient2990"><stop style="stop-color:#3465a4;stop-opacity:1" id="stop2992" offset="0"/><stop style="stop-color:#3465a4;stop-opacity:0" id="stop2994" offset="1"/></linearGradient><linearGradient id="linearGradient4712"><stop style="stop-color:#5b8ccb;stop-opacity:1" id="stop4714" offset="0"/><stop style="stop-color:#3465a4;stop-opacity:1" id="stop4716" offset="1"/></linearGradient><linearGradient id="linearGradient4694"><stop style="stop-color:#e9f1f8;stop-opacity:1" id="stop4696" offset="0"/><stop style="stop-color:#376ba3;stop-opacity:.839216" id="stop4698" offset="1"/></linearGradient><linearGradient id="linearGradient4666"><stop style="stop-color:#fff;stop-opacity:1" id="stop4668" offset="0"/><stop style="stop-color:#fff;stop-opacity:0" id="stop4670" offset="1"/></linearGradient><linearGradient id="linearGradient20210"><stop style="stop-color:#000;stop-opacity:.515464" id="stop20212" offset="0"/><stop id="stop20218" offset=".552" style="stop-color:#000;stop-opacity:.14433"/><stop style="stop-color:#000;stop-opacity:0" id="stop20214" offset="1"/></linearGradient><radialGradient id="radialGradient4646" cx="14.772" cy="74.21" r="7.829" fx="14.772" fy="74.21" gradientTransform="scale(1.76428, 0.566804)" gradientUnits="userSpaceOnUse" xlink:href="#linearGradient20210"/><radialGradient id="radialGradient4672" cx="25.756" cy="9.937" r="12.14" fx="25.756" fy="9.937" gradientTransform="matrix(2.1384, -5.90337e-16, 6.985e-16, 2.5302, -29.3205, -16.4538)" gradientUnits="userSpaceOnUse" xlink:href="#linearGradient4666"/><radialGradient id="radialGradient4700" cx="26.435" cy="17.031" r="13.244" fx="26.435" fy="17.031" gradientTransform="matrix(1.82134, -5.36498e-16, 6.35148e-16, 2.15624, -21.1544, -13.791)" gradientUnits="userSpaceOnUse" xlink:href="#linearGradient4694"/><linearGradient id="linearGradient4718" x1="20.644" x2="25.756" y1="9.04" y2="26.894" gradientUnits="userSpaceOnUse" xlink:href="#linearGradient4712"/><linearGradient id="linearGradient2996" x1="26" x2="27.55" y1="22.117" y2="28.127" gradientUnits="userSpaceOnUse" xlink:href="#linearGradient2990"/></defs><metadata id="metadata4"/><g id="layer1"><g id="g4634" transform="translate(-60.4639, 17)"><path style="overflow:visible;marker:none;opacity:.8;color:#000;fill:url(#radialGradient4646) #000;fill-opacity:1;fill-rule:nonzero;stroke:none;stroke-width:2;stroke-linecap:round;stroke-linejoin:round;stroke-miterlimit:4;stroke-dashoffset:0;stroke-opacity:1;visibility:visible;display:inline" id="path20208" d="M 39.875 42.0625 A 13.8125 4.4375 0 1 1 12.25,42.0625 A 13.8125 4.4375 0 1 1 39.875 42.0625 z" transform="matrix(1.19718, 0, 0, 1.09859, 55.7984, -20.0845)"/><path id="path19509" d="M 83.002195,22.877541 L 83.002195,24.260545 C 83.002195,25.643549 84.412925,26.872887 85.999995,26.872887 C 87.587066,26.872887 88.997794,25.643549 88.997794,24.260545 L 88.997794,22.877541 L 83.002195,22.877541 z" style="fill:#555753;fill-rule:nonzero;stroke:#2e3436;stroke-miterlimit:4;stroke-opacity:1"/><path style="overflow:visible;marker:none;color:#000;fill:#aeae57;fill-opacity:1;fill-rule:nonzero;stroke:#c4a000;stroke-width:2;stroke-linecap:round;stroke-linejoin:round;stroke-miterlimit:4;stroke-dashoffset:0;stroke-opacity:1;visibility:visible;display:inline" id="path3209" d="M 85.835145,11.623519 C 82.568355,11.6156 78.863714,12.580499 80.871174,14.404546 C 80.37345,14.606241 79.661991,15.056698 79.74586,16.11077 C 79.792165,16.661264 80.373008,16.99918 81.167349,17.247287 C 80.266845,17.881784 79.693849,18.55227 79.74586,19.170624 C 79.791625,19.714699 80.36024,20.087289 81.138339,20.336283 C 80.260526,20.963478 79.694561,21.649745 79.74586,22.259619 C 79.824263,23.191711 81.825461,24.235779 86.158773,24.115531 C 89.278706,24.030099 92.031874,23.468343 92.249159,22.259619 C 92.33448,21.784995 91.947797,21.34215 91.34985,20.948254 C 91.797476,20.495031 92.111066,20.035337 92.075099,19.607746 C 92.029119,19.061107 91.467192,18.690738 90.682621,18.442088 C 91.560434,17.814893 92.126398,17.128626 92.075099,16.518751 C 92.029119,15.972112 91.467192,15.630886 90.682621,15.382234 C 91.570901,14.751651 92.126729,14.072695 92.075099,13.458897 C 92.01771,12.776619 88.90549,11.630962 85.835145,11.623519 z"/><path id="path4702" d="M -3.5355339 27.228739 A 10.341436 3.2703688 0 1 1 -24.218407,27.228739 A 10.341436 3.2703688 0 1 1 -3.5355339 27.228739 z" transform="matrix(0.596154, -0.127796, 0.0635813, 0.755885, 92.3714, -7.70083)" style="overflow:visible;marker:none;color:#000;fill:#fce94f;fill-opacity:1;fill-rule:nonzero;stroke:none;stroke-width:.130352;stroke-linecap:round;stroke-linejoin:round;stroke-miterlimit:4;stroke-dashoffset:0;stroke-opacity:1;visibility:visible;display:inline"/><path style="overflow:visible;marker:none;color:#000;fill:#fce94f;fill-opacity:1;fill-rule:nonzero;stroke:none;stroke-width:.088289;stroke-linecap:round;stroke-linejoin:round;stroke-miterlimit:4;stroke-dashoffset:0;stroke-opacity:1;visibility:visible;display:inline" id="path3183" d="M 92.173603,22.21572 C 91.956317,23.424444 88.881191,24.10655 83.959276,23.858968 C 80.842089,23.702168 80.663716,22.82605 80.881,21.617325 C 81.098286,20.4086 83.804176,19.561647 86.920934,19.726804 C 90.037692,19.89196 92.390887,21.006996 92.173603,22.21572 z"/><path id="path1603" d="M -3.5355339 27.228739 A 10.341436 3.2703688 0 1 1 -24.218407,27.228739 A 10.341436 3.2703688 0 1 1 -3.5355339 27.228739 z" transform="matrix(0.596154, -0.127796, 0.0635813, 0.755885, 92.3714, -1.46902)" style="overflow:visible;marker:none;color:#000;fill:#fce94f;fill-opacity:1;fill-rule:nonzero;stroke:none;stroke-width:.130352;stroke-linecap:round;stroke-linejoin:round;stroke-miterlimit:4;stroke-dashoffset:0;stroke-opacity:1;visibility:visible;display:inline"/><path style="overflow:visible;marker:none;color:#000;fill:#fce94f;fill-opacity:1;fill-rule:nonzero;stroke:none;stroke-width:.130352;stroke-linecap:round;stroke-linejoin:round;stroke-miterlimit:4;stroke-dashoffset:0;stroke-opacity:1;visibility:visible;display:inline" id="path2364" d="M -3.5355339 27.228739 A 10.341436 3.2703688 0 1 1 -24.218407,27.228739 A 10.341436 3.2703688 0 1 1 -3.5355339 27.228739 z" transform="matrix(0.596154, -0.127796, 0.0635813, 0.755885, 92.3714, -4.54458)"/><path style="overflow:visible;marker:none;color:#000;fill:#fff;fill-opacity:1;fill-rule:nonzero;stroke:none;stroke-width:2;stroke-linecap:butt;stroke-linejoin:round;stroke-miterlimit:4;stroke-dashoffset:0;stroke-opacity:1;visibility:visible;display:inline" id="path20372" d="M 31 22.375 A 3.25 3.25 0 1 1 24.5,22.375 A 3.25 3.25 0 1 1 31 22.375 z" transform="matrix(0.331798, 0, 0, 0.333302, 73.2097, 11.1836)"/><path id="path2435" d="M 31 22.375 A 3.25 3.25 0 1 1 24.5,22.375 A 3.25 3.25 0 1 1 31 22.375 z" transform="matrix(0.331798, 0, 0, 0.333302, 73.2097, 14.1719)" style="overflow:visible;marker:none;color:#000;fill:#fff;fill-opacity:1;fill-rule:nonzero;stroke:none;stroke-width:2;stroke-linecap:butt;stroke-linejoin:round;stroke-miterlimit:4;stroke-dashoffset:0;stroke-opacity:1;visibility:visible;display:inline"/><path id="path4708" d="M 31 22.375 A 3.25 3.25 0 1 1 24.5,22.375 A 3.25 3.25 0 1 1 31 22.375 z" transform="matrix(0.331798, 0, 0, 0.333302, 73.2097, 7.77736)" style="overflow:visible;marker:none;color:#000;fill:#fff;fill-opacity:1;fill-rule:nonzero;stroke:none;stroke-width:2;stroke-linecap:butt;stroke-linejoin:round;stroke-miterlimit:4;stroke-dashoffset:0;stroke-opacity:1;visibility:visible;display:inline"/><path style="overflow:visible;marker:none;color:#000;fill:#fce94f;fill-opacity:1;fill-rule:nonzero;stroke:none;stroke-width:.130352;stroke-linecap:round;stroke-linejoin:round;stroke-miterlimit:4;stroke-dashoffset:0;stroke-opacity:1;visibility:visible;display:inline" id="path4710" d="M -3.5355339 27.228739 A 10.341436 3.2703688 0 1 1 -24.218407,27.228739 A 10.341436 3.2703688 0 1 1 -3.5355339 27.228739 z" transform="matrix(0.609516, 0.0148834, -0.114607, 0.749847, 97.7282, -6.66803)"/></g><path style="overflow:visible;marker:none;opacity:1;color:#000;fill:url(#radialGradient4700) #000;fill-opacity:1;fill-rule:evenodd;stroke:url(#linearGradient4718) #000;stroke-width:1;stroke-linecap:butt;stroke-linejoin:miter;stroke-miterlimit:4;stroke-dasharray:none;stroke-dashoffset:0;stroke-opacity:1;visibility:visible;display:inline" id="path3885" d="M 25.016299,3.1474516 C 18.321938,3.5296683 13.011824,9.1020052 13.011824,15.891539 C 13.011824,19.71505 16.031329,21.976654 17.309622,26.548802 C 18.3704,30.34295 22.089448,31.201903 25.402359,31.201903 C 29.402442,31.201903 33.695544,29.876694 34.659499,25.279481 C 35.454896,21.48614 38.5,19.028746 38.5,15.891539 C 38.499998,8.8546137 32.792838,3.1474516 25.755912,3.1474516 C 25.50852,3.1474516 25.260223,3.1335247 25.016299,3.1474516 z"/><path id="path4664" d="M 25.074585,4.3431622 C 18.907767,4.6952587 14.016112,9.8284722 14.016112,16.082962 C 14.016112,19.254718 17.329047,22.043543 18.204035,25.485407 C 19.21077,29.445511 22.366767,29.828929 25.755913,29.828929 C 29.350248,29.828929 32.872411,29.272027 33.552794,25.114528 C 34.110199,21.708487 37.495714,19.061139 37.495714,16.082962 C 37.495712,9.6005762 32.2383,4.3431622 25.755913,4.3431622 C 25.528017,4.3431622 25.299287,4.3303328 25.074585,4.3431622 z" style="overflow:visible;marker:none;opacity:.593407;color:#000;fill:none;fill-opacity:1;fill-rule:evenodd;stroke:url(#radialGradient4672) #000;stroke-width:1;stroke-linecap:butt;stroke-linejoin:miter;stroke-miterlimit:4;stroke-dasharray:none;stroke-dashoffset:0;stroke-opacity:1;visibility:visible;display:inline"/><path style="overflow:visible;marker:none;opacity:1;color:#000;fill:none;fill-opacity:1;fill-rule:evenodd;stroke:url(#linearGradient2996) #000;stroke-width:1;stroke-linecap:round;stroke-linejoin:round;stroke-miterlimit:4;stroke-dasharray:none;stroke-dashoffset:0;stroke-opacity:1;visibility:visible;display:inline" id="path4674" d="M 28.12132,29.055456 L 32,16.533748 C 28,14.768315 24,14.530464 20,17 L 21,20"/><path style="overflow:visible;marker:none;opacity:.752577;color:#000;fill:#fff;fill-opacity:1;fill-rule:nonzero;stroke:none;stroke-width:1.05887;stroke-linecap:butt;stroke-linejoin:miter;stroke-miterlimit:4;stroke-dasharray:none;stroke-dashoffset:0;stroke-opacity:1;visibility:visible;display:inline" id="path2998" d="M 34.75 10.125 A 9.25 6.125 0 1 1 16.25,10.125 A 9.25 6.125 0 1 1 34.75 10.125 z" transform="matrix(0.703611, 0, 0, 0.788898, 7.79951, 3.59721)"/><path id="path3000" d="M 34.75 10.125 A 9.25 6.125 0 1 1 16.25,10.125 A 9.25 6.125 0 1 1 34.75 10.125 z" transform="matrix(0.131662, -0.2583, 0.172707, 0.24754, 12.0763, 19.2506)" style="overflow:visible;marker:none;opacity:.685567;color:#000;fill:#fff;fill-opacity:1;fill-rule:nonzero;stroke:none;stroke-width:1.05887;stroke-linecap:butt;stroke-linejoin:miter;stroke-miterlimit:4;stroke-dasharray:none;stroke-dashoffset:0;stroke-opacity:1;visibility:visible;display:inline"/></g></svg>