<svg xmlns="http://www.w3.org/2000/svg" xmlns:svg="http://www.w3.org/2000/svg" xmlns:xlink="http://www.w3.org/1999/xlink" id="svg0" width="48" height="48" version="1.0"><defs id="defs"><linearGradient id="G0"><stop id="s1" offset="0" style="stop-color:#e6cf00;stop-opacity:1"/><stop id="s2" offset="1" style="stop-color:#fde94a;stop-opacity:1"/></linearGradient><linearGradient id="G1"><stop id="s3" offset="0" style="stop-color:#fcf9fb;stop-opacity:1"/><stop id="s4" offset="1" style="stop-color:#fcf9fb;stop-opacity:0"/></linearGradient><linearGradient id="G2"><stop id="s5" offset="0" style="stop-color:#000;stop-opacity:.63"/><stop id="s6" offset="1" style="stop-color:#000;stop-opacity:0"/></linearGradient><linearGradient id="G3" x1="14.66" x2="24.031" y1="7.024" y2="34.826" gradientUnits="userSpaceOnUse" xlink:href="#G1"/><radialGradient id="R0" cx="24" cy="22" r="22" fx="24" fy="22" gradientTransform="matrix(1, -0.2, 0.2, 1, -3.8, 6.8)" gradientUnits="userSpaceOnUse" xlink:href="#G0"/><radialGradient id="R1" cx="17.313" cy="25.531" r="9.688" fx="17.313" fy="25.531" gradientTransform="matrix(2.4, 0, 0, 0.67, -17.1, 22.4)" gradientUnits="userSpaceOnUse" xlink:href="#G2"/></defs><path id="s" d="M 47,39.5 C 47,43.08967 36.702552,46 24,46 C 11.297449,46 1,43.08967 1,39.5 C 1,35.91 11.297449,32 24,32 C 36.702552,32 47,35.909969 47,39.5 z" style="opacity:.5;fill:url(#R1) #000"/><path id="star" d="M 37.310531,41.5 L 24.030644,34.826121 L 10.735101,41.471448 L 13.289408,27.369086 L 2.5511635,17.368344 L 17.409702,15.326301 L 24.068641,2.5 L 30.697416,15.340488 L 45.551111,17.414249 L 34.789382,27.392039 L 37.310531,41.5 z" style="fill:url(#R0) #000;stroke:#c4a000"/><path id="hl" d="M 17.731857,15.79089 L 24.06374,3.5868195 L 30.369452,15.794804 L 44.440148,17.761498 L 40.820395,21.121507 C 24.382895,17.434007 31.36502,28.341981 13.251748,30.364721 L 13.819799,27.184324 L 3.6604518,17.718688 C 3.6604518,17.718688 17.731857,15.79089 17.731857,15.79089 z" style="opacity:.8;fill:url(#G3) #000;stroke:none"/><path id="ol" d="M 35.973752,39.712833 L 24.028333,33.709386 L 12.082531,39.678326 L 14.362768,27.008543 L 4.7776396,18.070249 L 18.056076,16.247921 L 24.062792,4.6783526 L 30.045232,16.255741 L 43.322959,18.11306 L 33.713703,27.034785 L 35.973752,39.712833 z" style="opacity:.69;fill:none;stroke:#fff"/></svg>